<?xml version="1.0" standalone="no"?>
<!DOCTYPE svg PUBLIC "-//W3C//DTD SVG 20010904//EN"
 "http://www.w3.org/TR/2001/REC-SVG-20010904/DTD/svg10.dtd">
<svg version="1.0" xmlns="http://www.w3.org/2000/svg"
 width="136.000000pt" height="136.000000pt" viewBox="0 0 136.000000 136.000000"
 preserveAspectRatio="xMidYMid meet">
<metadata>
Created by potrace 1.14, written by Peter Selinger 2001-2017
</metadata>
<g transform="translate(0.000000,136.000000) scale(0.100000,-0.100000)"
fill="#000000" stroke="none">
<path d="M719 1159 c-13 -22 -30 -47 -36 -54 -7 -7 -13 -18 -13 -24 0 -25 -84
-79 -158 -102 -42 -12 -80 -22 -83 -22 -3 1 -33 4 -65 7 -84 8 -123 14 -134
21 -14 9 -12 -6 5 -39 20 -39 41 -126 38 -156 -2 -14 -4 -42 -5 -62 -2 -21 -7
-38 -12 -38 -6 0 -5 -5 2 -12 7 -7 12 -20 12 -31 0 -10 12 -53 26 -95 15 -42
27 -88 28 -102 1 -14 5 -30 7 -35 5 -10 5 -22 -2 -126 -2 -43 -6 -48 -43 -68
-23 -12 -53 -29 -67 -39 -15 -9 -50 -30 -78 -47 -28 -16 -51 -33 -51 -37 0 -5
-5 -8 -10 -8 -18 0 -80 -45 -80 -58 0 -10 5 -10 22 -1 12 6 27 16 32 21 13 10
169 111 208 132 26 16 27 16 21 -12 -3 -15 -5 -34 -4 -42 1 -15 1 -40 -2 -95
l-2 -30 466 -3 466 -2 -1 104 -1 103 32 -15 c18 -9 33 -20 33 -24 0 -5 5 -6
10 -3 6 3 10 2 10 -3 0 -4 16 -16 35 -25 50 -24 48 4 -2 34 -21 13 -40 27 -41
31 -2 5 -7 6 -11 3 -5 -2 -23 9 -41 25 -20 18 -45 30 -62 30 -21 0 -31 8 -44
33 -9 17 -22 35 -28 39 -6 4 -8 8 -4 8 4 0 -7 24 -25 53 -32 50 -59 108 -59
124 0 4 -4 13 -10 20 -13 17 -30 203 -18 203 9 0 5 81 -4 110 -8 22 -41 76
-56 90 -7 7 -42 60 -56 85 -22 42 -39 70 -44 75 -3 3 -14 22 -25 43 -31 60
-47 63 -76 16z m122 -280 c12 -48 -45 -104 -97 -96 -74 11 -75 135 -2 155 27
8 38 5 63 -13 16 -12 32 -33 36 -46z m-371 -29 c0 -6 -8 -14 -17 -17 -26 -10
-42 -34 -43 -63 0 -33 10 -47 43 -59 24 -9 31 -7 58 17 27 24 31 32 24 61 -4
18 -13 35 -21 38 -8 3 -14 9 -14 14 0 21 41 -18 49 -46 17 -62 -53 -121 -113
-94 -44 20 -53 83 -18 124 13 14 27 23 32 20 6 -3 10 -1 10 4 0 6 2 11 5 11 3
0 5 -5 5 -10z"/>
<path d="M728 916 c-10 -7 -21 -27 -24 -43 -6 -33 11 -77 27 -68 5 4 9 2 9 -3
0 -12 30 -10 50 3 19 13 59 61 42 51 -8 -5 -11 0 -8 16 6 45 -57 74 -96 44z"/>
</g>
</svg>
